<?xml version="1.0" standalone="no"?>
<!DOCTYPE svg PUBLIC "-//W3C//DTD SVG 20010904//EN"
 "http://www.w3.org/TR/2001/REC-SVG-20010904/DTD/svg10.dtd">
<svg version="1.0" xmlns="http://www.w3.org/2000/svg"
 width="500.000000pt" height="500.000000pt" viewBox="0 0 500.000000 500.000000"
 preserveAspectRatio="xMidYMid meet">
<metadata>
Created by potrace 1.11, written by Peter Selinger 2001-2013
</metadata>
<g transform="translate(0.000000,500.000000) scale(0.100000,-0.100000)"
fill="#000000" stroke="none">
<path d="M0 2500 l0 -2500 2500 0 2500 0 0 2500 0 2500 -2500 0 -2500 0 0
-2500z m1794 943 c83 -248 153 -454 156 -457 3 -3 74 202 159 455 l153 459
291 -2 290 -3 151 -452 c83 -248 153 -454 156 -457 3 -3 74 202 159 455 l153
459 450 0 c424 0 450 -1 446 -17 -3 -10 -200 -611 -439 -1336 l-434 -1317
-333 2 -332 3 -134 400 c-115 345 -135 397 -143 375 -6 -14 -66 -195 -134
-403 l-123 -377 -334 2 -333 3 -440 1330 c-241 732 -439 1331 -439 1333 0 1
203 1 452 0 l451 -3 151 -452z"/>
<path d="M1310 3403 c32 -98 183 -555 335 -1015 l276 -838 49 0 48 0 36 108
c19 59 137 429 262 822 124 393 229 720 233 727 3 6 125 -364 270 -823 l265
-834 50 0 51 0 329 1003 c181 551 331 1008 334 1015 3 8 -11 12 -50 12 l-54 0
-298 -907 c-164 -500 -302 -914 -305 -921 -4 -7 -137 399 -297 902 -159 503
-292 912 -295 908 -3 -4 -131 -403 -283 -887 -153 -484 -284 -893 -290 -908
-11 -28 -13 -24 -45 75 -18 56 -154 471 -303 921 l-269 817 -54 0 -53 0 58
-177z"/>
</g>
</svg>
